# xmcd CD database file
#
# Track frame offsets:
#	183
#	13983
#	24645
#	39383
#	53558
#	69033
#	82883
#	96058
#	108733
#	123070
#	145083
#	156808
#	170508
#	183258
#	196833
#	209508
#	223808
#	236958
#	249408
#	264483
#	277558
#	291145
#	305458
#	320583
#
# Disc length: 4462 seconds
#
# Revision: 2
# Processed by: cddbd v1.5.2PL0 Copyright (c) Steve Scherf et al.
# Submitted via: CDex 1.85
#
DISCID=4d116c18
DTITLE=Swing Bands - Jimmie Lunceford and Chick Webb
DYEAR=1990
DGENRE=Jazz
TTITLE0=Flaming Reeds and Screaming Bass (J. Lucenford and His Orchestra)
TTITLE1=Stratosphere (J. Lucenford and His Orchestra)
TTITLE2=Four or five Times (J. Lucenford and His Orchestra)
TTITLE3=Harlem Shout (J. Lucenford and His Orchestra)
TTITLE4=Battle Axe (J. Lucenford and His Orchestra)
TTITLE5=Ok for Baby (J. Lucenford and His Orchestra)
TTITLE6=Lunceford Special (J. Lucenford and His Orchestra)
TTITLE7=Blues in the Groove (J. Lucenford and His Orchestra)
TTITLE8=It Had to Be You (J. Lucenford and His Orchestra)
TTITLE9=When the Swallows Come Back to Capistrano (J. Lucenford and His Orchestra)
TTITLE10=Just You (J. Lucenford and His Orchestra)
TTITLE11=Caldonia (J. Lucenford and His Orchestra)
TTITLE12=Jay Gee (J. Lucenford and His Orchestra)
TTITLE13=Margie (J. Lucenford and His Orchestra)
TTITLE14=Take Another Guess (Ch. Webb and His Orchestra)
TTITLE15=By Heck (Ch. Webb and His Orchestra)
TTITLE16=Sweet Sue, Just You(Ch. Webb and His Orchestra)
TTITLE17=If Dreams Come True (Ch. Webb and His Orchestra)
TTITLE18=Azure (Ch. Webb and His Orchestra)
TTITLE19=Ella (Ch. Webb and His Orchestra)
TTITLE20=Who ya Hunchin'? (Ch. Webb and His Orchestra)
TTITLE21='Tain't What you do (It's the Way That Cha Do It) (Ch. Webb and His Orchestra, E. Fitzgerald)
TTITLE22=Undecided (Ch. Webb and His Orchestra, E. Fitzgerald)
TTITLE23=Chew-Chew-Chew - Your Bubble Gum (Ch. Webb and His Orchestra, E. Fitzgerald)
EXTD=YEAR: 1990
EXTT0=
EXTT1=
EXTT2=
EXTT3=
EXTT4=
EXTT5=
EXTT6=
EXTT7=
EXTT8=
EXTT9=
EXTT10=
EXTT11=
EXTT12=
EXTT13=
EXTT14=
EXTT15=
EXTT16=
EXTT17=
EXTT18=
EXTT19=
EXTT20=
EXTT21=
EXTT22=
EXTT23=
PLAYORDER=
